<svg version="1.1" id="Layer_1" xmlns="http://www.w3.org/2000/svg" xmlns:xlink="http://www.w3.org/1999/xlink" x="0px" y="0px"
	 width="100%" viewBox="0 0 200 199" enable-background="new 0 0 200 199" xml:space="preserve">
<path fill="#FFFEFE" opacity="1.000000" stroke="none" 
	d="
M201.000000,2.000003 
	C201.000000,67.963715 201.000000,133.927429 201.000000,199.945572 
	C134.406311,199.945572 67.812561,199.945572 1.109409,199.945572 
	C1.109409,133.776230 1.109409,67.552231 1.109409,1.000000 
	C67.020531,1.000000 133.041611,1.000000 199.615356,1.235944 
	C200.445343,1.647927 200.722672,1.823966 201.000000,2.000003 
M96.641235,174.150848 
	C136.147675,176.781906 171.940353,147.336243 174.755249,105.180771 
	C177.890244,58.231567 135.536224,20.412678 89.016441,28.218401 
	C52.026405,34.425095 26.309025,66.937599 27.962646,105.404007 
	C29.504148,141.262268 59.116684,171.309570 96.641235,174.150848 
z"/>
<path fill="#D9D9DA" opacity="1.000000" stroke="none" 
	d="
M201.000000,1.500003 
	C200.722672,1.823966 200.445343,1.647927 200.084015,1.235944 
	C200.333328,1.000000 200.666672,1.000000 201.000000,1.500003 
z"/>
<path fill="#EF2029" opacity="1.000000" stroke="none" 
	d="
M96.164291,174.136932 
	C59.116684,171.309570 29.504148,141.262268 27.962646,105.404007 
	C26.309025,66.937599 52.026405,34.425095 89.016441,28.218401 
	C135.536224,20.412678 177.890244,58.231567 174.755249,105.180771 
	C171.940353,147.336243 136.147675,176.781906 96.164291,174.136932 
M88.069046,126.512489 
	C88.069046,134.256042 88.069046,141.999603 88.069046,149.632919 
	C97.331352,149.632919 105.763695,149.632919 114.878983,149.632919 
	C114.878983,137.680252 114.878983,125.989670 114.878983,113.879662 
	C126.982498,113.879662 138.402451,113.879662 149.800095,113.879662 
	C149.800095,104.898270 149.800095,96.366219 149.800095,87.404236 
	C137.952850,87.404236 126.523376,87.404236 114.554123,87.404236 
	C114.554123,75.390556 114.554123,63.808987 114.554123,52.322426 
	C105.433403,52.322426 96.873276,52.322426 87.799057,52.322426 
	C87.799057,64.252602 87.799057,75.804596 87.799057,87.897339 
	C75.726982,87.897339 64.174316,87.897339 52.595566,87.897339 
	C52.595566,96.871651 52.595566,105.278481 52.595566,114.156555 
	C64.502838,114.156555 76.084503,114.156555 87.488525,114.156555 
	C87.771965,114.931374 87.973160,115.230164 87.977524,115.531799 
	C88.025665,118.860786 88.043221,122.190231 88.069046,126.512489 
z"/>
<path fill="#FEFCFC" opacity="1.000000" stroke="none" 
	d="
M88.069046,126.016022 
	C88.043221,122.190231 88.025665,118.860786 87.977524,115.531799 
	C87.973160,115.230164 87.771965,114.931374 87.488525,114.156555 
	C76.084503,114.156555 64.502838,114.156555 52.595566,114.156555 
	C52.595566,105.278481 52.595566,96.871651 52.595566,87.897339 
	C64.174316,87.897339 75.726982,87.897339 87.799057,87.897339 
	C87.799057,75.804596 87.799057,64.252602 87.799057,52.322426 
	C96.873276,52.322426 105.433403,52.322426 114.554123,52.322426 
	C114.554123,63.808987 114.554123,75.390556 114.554123,87.404236 
	C126.523376,87.404236 137.952850,87.404236 149.800095,87.404236 
	C149.800095,96.366219 149.800095,104.898270 149.800095,113.879662 
	C138.402451,113.879662 126.982498,113.879662 114.878983,113.879662 
	C114.878983,125.989670 114.878983,137.680252 114.878983,149.632919 
	C105.763695,149.632919 97.331352,149.632919 88.069046,149.632919 
	C88.069046,141.999603 88.069046,134.256042 88.069046,126.016022 
z"/>
</svg>