<svg version="1.1" id="Layer_1" xmlns="http://www.w3.org/2000/svg" xmlns:xlink="http://www.w3.org/1999/xlink" x="0px" y="0px"
	 width="100%" viewBox="0 0 882 884" enable-background="new 0 0 882 884" xml:space="preserve">
<path fill="#FFFFFF" opacity="1.000000" stroke="none" 
	d="
M1.000000,882.000000 
	C1.000000,588.436157 1.000000,294.872253 1.000000,1.000000 
	C112.024712,1.000000 223.049713,1.000000 334.537354,1.468466 
	C335.000793,6.733037 335.111633,11.532607 334.960785,16.323936 
	C334.871857,19.147871 335.988983,20.128572 338.743713,20.037275 
	C343.204193,19.889448 347.674591,20.067884 352.137909,19.972481 
	C356.010681,19.889698 358.308533,18.299335 358.054291,13.896763 
	C357.806793,9.611091 358.000183,5.299956 358.000000,1.000000 
	C481.024902,1.000000 604.049805,1.000000 727.537354,1.465461 
	C727.740601,6.552570 727.609558,11.186374 727.173462,15.791288 
	C726.913513,18.536718 727.766968,20.085901 730.589355,19.960676 
	C736.375000,19.703987 742.193909,19.572664 747.904419,18.740185 
	C749.139893,18.560081 750.682129,15.710576 750.856262,13.967996 
	C751.284485,9.683344 750.998596,5.327317 751.000000,1.000000 
	C794.981506,1.000000 838.963074,1.000000 883.000000,1.000000 
	C883.000000,294.358246 883.000000,587.716492 882.542480,881.559692 
	C639.787842,882.045471 397.490784,882.048950 155.193680,882.044922 
	C103.795784,882.044006 52.397892,882.015686 1.000000,882.000000 
M132.623260,636.854675 
	C154.999680,672.237976 182.324005,703.301819 215.459045,728.861938 
	C304.946014,797.891418 405.629669,821.834473 516.445496,800.485413 
	C584.966370,787.284668 644.657715,755.674255 695.159241,707.441956 
	C763.575684,642.099670 801.323792,561.898926 808.781433,467.686523 
	C811.930054,427.908997 808.470825,388.466766 798.005432,349.860474 
	C769.845154,245.977921 708.271606,168.055817 613.541565,117.413651 
	C540.037415,78.118706 461.363708,66.745422 379.202118,80.889374 
	C315.125916,91.919975 257.943359,118.395195 208.285538,160.266251 
	C138.059616,219.480133 95.284668,294.524689 80.730644,385.462677 
	C74.513412,424.309906 74.839745,463.120941 81.212540,501.839020 
	C89.144768,550.031433 106.273628,594.838623 132.623260,636.854675 
M725.000061,183.683823 
	C725.000366,186.177032 725.147522,188.680954 724.966492,191.160934 
	C724.693726,194.897476 726.354065,196.317383 729.967773,196.016922 
	C735.070435,195.592651 740.216064,195.515930 745.269958,194.784393 
	C746.624817,194.588303 748.683044,192.613205 748.760193,191.353256 
	C749.135315,185.227173 749.068359,179.061905 748.831177,172.923157 
	C748.794617,171.978561 747.006836,170.270370 746.115662,170.325119 
	C740.364319,170.678391 734.617798,171.295532 728.918945,172.153351 
	C727.846313,172.314804 726.462280,173.801270 726.150391,174.932343 
	C725.455688,177.451935 725.347961,180.133362 725.000061,183.683823 
M37.000374,103.327606 
	C36.413486,107.087433 38.064747,108.399818 41.749237,108.038208 
	C46.829174,107.539635 51.952774,107.454185 57.016472,106.847748 
	C58.086651,106.719589 59.722595,105.183777 59.829910,104.163223 
	C60.432461,98.432907 60.895832,92.657898 60.806202,86.907501 
	C60.785637,85.588219 58.405434,83.192955 57.114590,83.195274 
	C50.909367,83.206398 44.705315,83.869514 37.890411,84.343620 
	C37.582283,90.583145 37.291241,96.476776 37.000374,103.327606 
M638.303528,83.001671 
	C635.375000,83.001671 632.446472,83.001671 628.969604,83.001671 
	C628.625244,90.123230 628.152161,96.533287 628.138916,102.944290 
	C628.136169,104.272186 629.713806,106.629372 630.781006,106.762291 
	C636.510071,107.475853 642.305664,107.756592 648.084473,107.867218 
	C649.031677,107.885338 650.718079,106.412758 650.851562,105.459572 
	C651.468506,101.053055 651.860840,96.590912 651.954651,92.140717 
	C652.113953,84.579216 651.991272,84.611580 644.592224,83.962547 
	C642.791931,83.804626 641.018982,83.334923 638.303528,83.001671 
M41.779484,781.006958 
	C38.594482,780.891785 38.036308,782.817139 37.960381,785.507629 
	C37.811749,790.774719 37.459461,796.037842 37.103565,801.296692 
	C36.902905,804.261719 38.536034,805.136475 41.072899,804.981079 
	C45.674358,804.699280 50.280075,803.984436 54.865906,804.110229 
	C58.475971,804.209351 60.228943,802.691101 60.620876,799.504639 
	C61.243385,794.443848 61.563782,789.345459 61.992279,784.261353 
	C62.269417,780.973083 60.565575,779.773499 57.478428,779.996033 
	C52.549934,780.351318 47.618649,780.667847 41.779484,781.006958 
M651.989380,783.828247 
	C651.451416,782.926331 650.977966,781.289612 650.365601,781.235901 
	C644.101257,780.686523 637.816711,780.302795 631.530945,780.142334 
	C630.719543,780.121643 629.223694,781.566833 629.141296,782.436829 
	C628.595215,788.201904 628.354126,793.995728 628.001648,799.779419 
	C627.823669,802.698425 629.097229,803.960266 632.098450,804.045288 
	C637.221802,804.190491 642.336304,804.839783 647.454285,804.838623 
	C648.632507,804.838318 650.713806,803.164856 650.837341,802.085083 
	C651.494812,796.337341 651.661865,790.533508 651.989380,783.828247 
M58.994705,279.160339 
	C59.329460,274.204590 59.598454,269.243225 60.020348,264.294922 
	C60.342041,260.521790 59.036018,258.586761 54.969215,258.977478 
	C50.523575,259.404633 46.061264,259.908691 41.605850,259.912170 
	C37.290707,259.915558 36.122719,262.390167 36.030499,265.924103 
	C35.917519,270.253510 36.224026,274.602783 35.939335,278.916412 
	C35.640751,283.440643 37.934830,284.355438 41.740612,283.991333 
	C46.021591,283.581787 50.352539,283.547394 54.587296,282.878479 
	C56.154617,282.630920 57.510460,281.044525 58.994705,279.160339 
M834.663696,631.000000 
	C837.995056,630.997742 841.350159,631.220825 844.645142,630.873413 
	C845.829712,630.748474 847.818481,629.257202 847.825073,628.377319 
	C847.878357,621.351013 847.543762,614.321716 847.337219,607.593201 
	C840.085632,606.993835 834.156372,606.494263 828.225342,606.017334 
	C824.900024,605.749878 823.753357,607.411926 824.068787,610.575867 
	C824.462219,614.521729 824.893860,618.480225 824.958984,622.438965 
	C825.094910,630.703491 825.000549,630.705017 834.663696,631.000000 
M136.000015,700.524658 
	C135.739700,704.318298 135.162308,708.130371 135.382141,711.895996 
	C135.464874,713.313171 137.245956,715.615601 138.510345,715.806152 
	C143.567383,716.568726 148.732178,716.584351 153.844315,717.024719 
	C157.579788,717.346619 159.003387,715.519226 158.997452,712.065186 
	C158.988861,707.067383 158.928757,702.068359 159.020645,697.072205 
	C159.076492,694.035767 157.636520,693.037781 154.748962,692.954468 
	C149.789169,692.811462 144.833954,692.413269 139.885406,692.015442 
	C137.207550,691.800232 135.703110,692.580383 135.982758,695.566345 
	C136.106491,696.887451 136.001282,698.229858 136.000015,700.524658 
z"/>
<path fill="#33373E" opacity="1.000000" stroke="none" 
	d="
M1.000000,882.500000 
	C52.397892,882.015686 103.795784,882.044006 155.193680,882.044922 
	C397.490784,882.048950 639.787842,882.045471 882.542480,882.022339 
	C882.951904,883.654358 883.621460,885.871765 880.493408,885.024353 
	C879.872314,884.856079 879.166687,885.000000 878.500000,885.000000 
	C587.500000,885.000000 296.500000,885.004456 5.500071,884.858704 
	C4.211021,884.858093 0.872537,887.328430 1.000000,882.500000 
z"/>
<path fill="#F8F8F8" opacity="1.000000" stroke="none" 
	d="
M357.531372,1.000000 
	C358.000183,5.299956 357.806793,9.611091 358.054291,13.896763 
	C358.308533,18.299335 356.010681,19.889698 352.137909,19.972481 
	C347.674591,20.067884 343.204193,19.889448 338.743713,20.037275 
	C335.988983,20.128572 334.871857,19.147871 334.960785,16.323936 
	C335.111633,11.532607 335.000793,6.733037 335.000000,1.468466 
	C342.354248,1.000000 349.708496,1.000000 357.531372,1.000000 
z"/>
<path fill="#F8F8F8" opacity="1.000000" stroke="none" 
	d="
M750.531372,1.000000 
	C750.998596,5.327317 751.284485,9.683344 750.856262,13.967996 
	C750.682129,15.710576 749.139893,18.560081 747.904419,18.740185 
	C742.193909,19.572664 736.375000,19.703987 730.589355,19.960676 
	C727.766968,20.085901 726.913513,18.536718 727.173462,15.791288 
	C727.609558,11.186374 727.740601,6.552570 728.000000,1.465461 
	C735.354248,1.000000 742.708496,1.000000 750.531372,1.000000 
z"/>
<path fill="#E73324" opacity="1.000000" stroke="none" 
	d="
M132.425827,636.548889 
	C106.273628,594.838623 89.144768,550.031433 81.212540,501.839020 
	C74.839745,463.120941 74.513412,424.309906 80.730644,385.462677 
	C95.284668,294.524689 138.059616,219.480133 208.285538,160.266251 
	C257.943359,118.395195 315.125916,91.919975 379.202118,80.889374 
	C461.363708,66.745422 540.037415,78.118706 613.541565,117.413651 
	C708.271606,168.055817 769.845154,245.977921 798.005432,349.860474 
	C808.470825,388.466766 811.930054,427.908997 808.781433,467.686523 
	C801.323792,561.898926 763.575684,642.099670 695.159241,707.441956 
	C644.657715,755.674255 584.966370,787.284668 516.445496,800.485413 
	C405.629669,821.834473 304.946014,797.891418 215.459045,728.861938 
	C182.324005,703.301819 154.999680,672.237976 132.425827,636.548889 
M367.735748,211.185944 
	C367.383423,211.121735 367.129028,211.251175 366.635498,211.884628 
	C366.635498,211.884628 366.233215,212.104034 365.538391,212.567200 
	C365.367493,214.532181 365.048584,216.497070 365.047394,218.462158 
	C365.019257,264.954712 364.957855,311.447510 365.128265,357.939453 
	C365.145508,362.646088 364.033417,364.132019 359.120300,364.112518 
	C312.295197,363.926666 265.469025,363.988953 218.643280,364.048340 
	C216.775574,364.050690 214.908737,364.737610 212.978470,365.595215 
	C212.978470,365.595215 213.160187,366.054199 212.953400,366.012787 
	C212.953400,366.012787 212.753952,365.944366 212.249527,366.609894 
	C212.156189,367.262177 211.981476,367.914429 211.981171,368.566742 
	C211.967270,397.934845 211.960953,427.302979 211.998260,456.671051 
	C211.999664,457.774445 212.442062,458.877289 212.832886,460.730072 
	C212.907089,461.488983 212.981293,462.247894 212.805862,462.892334 
	C212.805862,462.892334 212.545425,462.979431 212.188995,463.534393 
	C212.316376,465.013336 212.443741,466.492279 212.669586,468.614258 
	C212.621170,469.042999 212.572754,469.471710 211.903091,470.163788 
	C211.928146,485.374603 211.941010,500.585510 212.014648,515.796082 
	C212.018295,516.548035 212.551575,517.297302 212.997208,517.980164 
	C212.997208,517.980164 213.162445,517.929565 213.011002,518.380127 
	C213.011002,518.380127 213.076736,518.850769 213.465973,519.423462 
	C214.999329,519.064453 216.532684,518.705383 218.983093,518.196960 
	C246.807541,518.186462 274.632019,518.150696 302.456421,518.174133 
	C321.612823,518.190308 340.769196,518.288513 360.041473,518.867615 
	C360.718048,518.693726 361.394623,518.519836 362.688141,518.205872 
	C363.105164,518.249939 363.522156,518.293945 364.118805,519.115173 
	C364.424011,521.392883 364.992981,523.670227 364.995544,525.948303 
	C365.047699,572.424316 365.022400,618.900452 365.081329,665.376465 
	C365.083710,667.252808 365.759430,669.128174 366.749359,671.522217 
	C368.729645,671.645874 370.709839,671.875732 372.690216,671.877258 
	C402.320709,671.900391 431.951172,671.893433 461.581665,671.893250 
	C479.393250,671.893127 497.205200,671.941284 515.015747,671.804504 
	C516.519775,671.792908 518.014160,670.541260 519.664368,668.959229 
	C519.622192,631.650696 519.579956,594.342163 519.755432,556.500244 
	C519.685852,556.321228 519.616272,556.142273 519.691406,555.179932 
	C519.661377,554.121887 519.631409,553.063843 519.902527,551.240417 
	C519.788879,550.161499 519.675232,549.082642 519.710510,547.078552 
	C519.784973,537.579834 519.859375,528.081055 520.379944,518.567505 
	C520.683533,518.493530 520.927490,518.330383 522.032654,518.152527 
	C531.997681,518.123535 541.962646,518.094482 552.392456,518.382263 
	C553.311035,518.282959 554.229553,518.183655 555.770447,518.207642 
	C556.182434,518.135132 556.594482,518.062683 557.612549,518.174133 
	C558.031616,518.148621 558.450684,518.123169 559.120972,518.383179 
	C559.453491,518.284973 559.786011,518.186768 561.037781,518.174133 
	C597.683777,518.121521 634.329773,518.068848 671.178589,518.257935 
	C671.178589,518.257935 671.643005,518.271606 671.643005,518.271606 
	C671.643005,518.271606 671.971558,517.975098 671.996643,517.947632 
	C671.996643,517.947632 671.962524,517.932861 672.730347,517.864136 
	C672.930054,516.422119 673.303467,514.980286 673.304382,513.538147 
	C673.334961,466.338776 673.332947,419.139435 673.312927,371.940063 
	C673.312378,370.632782 673.060730,369.325592 673.044678,367.346558 
	C672.960144,366.904144 672.875610,366.461700 672.861633,365.493774 
	C672.551453,365.416626 672.241211,365.339478 671.979858,365.101990 
	C671.979858,365.101990 672.026001,364.940887 671.413147,364.372528 
	C669.597168,364.255493 667.781189,364.037018 665.965149,364.036285 
	C619.635742,364.017334 573.306030,363.951752 526.977234,364.126038 
	C522.226440,364.143921 520.817566,362.953400 520.836670,358.081451 
	C521.019897,311.419403 520.962097,264.756378 520.889832,218.093750 
	C520.886780,216.116730 520.064697,214.140991 519.310852,212.169785 
	C519.310852,212.169785 519.000793,212.215637 518.585815,211.801895 
	C518.393921,211.838089 518.201965,211.874298 517.083252,211.743729 
	C469.717743,211.729538 422.352203,211.712082 374.986694,211.711105 
	C372.666412,211.711060 370.346130,211.855179 368.117798,211.638596 
	C368.117798,211.638596 368.004547,211.352509 367.735748,211.185944 
z"/>
<path fill="#F9F8F8" opacity="1.000000" stroke="none" 
	d="
M725.000549,183.216339 
	C725.347961,180.133362 725.455688,177.451935 726.150391,174.932343 
	C726.462280,173.801270 727.846313,172.314804 728.918945,172.153351 
	C734.617798,171.295532 740.364319,170.678391 746.115662,170.325119 
	C747.006836,170.270370 748.794617,171.978561 748.831177,172.923157 
	C749.068359,179.061905 749.135315,185.227173 748.760193,191.353256 
	C748.683044,192.613205 746.624817,194.588303 745.269958,194.784393 
	C740.216064,195.515930 735.070435,195.592651 729.967773,196.016922 
	C726.354065,196.317383 724.693726,194.897476 724.966492,191.160934 
	C725.147522,188.680954 725.000366,186.177032 725.000549,183.216339 
z"/>
<path fill="#F8F8F8" opacity="1.000000" stroke="none" 
	d="
M37.000282,102.848999 
	C37.291241,96.476776 37.582283,90.583145 37.890411,84.343620 
	C44.705315,83.869514 50.909367,83.206398 57.114590,83.195274 
	C58.405434,83.192955 60.785637,85.588219 60.806202,86.907501 
	C60.895832,92.657898 60.432461,98.432907 59.829910,104.163223 
	C59.722595,105.183777 58.086651,106.719589 57.016472,106.847748 
	C51.952774,107.454185 46.829174,107.539635 41.749237,108.038208 
	C38.064747,108.399818 36.413486,107.087433 37.000282,102.848999 
z"/>
<path fill="#F8F8F8" opacity="1.000000" stroke="none" 
	d="
M638.768494,83.005127 
	C641.018982,83.334923 642.791931,83.804626 644.592224,83.962547 
	C651.991272,84.611580 652.113953,84.579216 651.954651,92.140717 
	C651.860840,96.590912 651.468506,101.053055 650.851562,105.459572 
	C650.718079,106.412758 649.031677,107.885338 648.084473,107.867218 
	C642.305664,107.756592 636.510071,107.475853 630.781006,106.762291 
	C629.713806,106.629372 628.136169,104.272186 628.138916,102.944290 
	C628.152161,96.533287 628.625244,90.123230 628.969604,83.001671 
	C632.446472,83.001671 635.375000,83.001671 638.768494,83.005127 
z"/>
<path fill="#F9F8F8" opacity="1.000000" stroke="none" 
	d="
M42.234016,781.003906 
	C47.618649,780.667847 52.549934,780.351318 57.478428,779.996033 
	C60.565575,779.773499 62.269417,780.973083 61.992279,784.261353 
	C61.563782,789.345459 61.243385,794.443848 60.620876,799.504639 
	C60.228943,802.691101 58.475971,804.209351 54.865906,804.110229 
	C50.280075,803.984436 45.674358,804.699280 41.072899,804.981079 
	C38.536034,805.136475 36.902905,804.261719 37.103565,801.296692 
	C37.459461,796.037842 37.811749,790.774719 37.960381,785.507629 
	C38.036308,782.817139 38.594482,780.891785 42.234016,781.003906 
z"/>
<path fill="#F9F8F8" opacity="1.000000" stroke="none" 
	d="
M651.994019,784.288696 
	C651.661865,790.533508 651.494812,796.337341 650.837341,802.085083 
	C650.713806,803.164856 648.632507,804.838318 647.454285,804.838623 
	C642.336304,804.839783 637.221802,804.190491 632.098450,804.045288 
	C629.097229,803.960266 627.823669,802.698425 628.001648,799.779419 
	C628.354126,793.995728 628.595215,788.201904 629.141296,782.436829 
	C629.223694,781.566833 630.719543,780.121643 631.530945,780.142334 
	C637.816711,780.302795 644.101257,780.686523 650.365601,781.235901 
	C650.977966,781.289612 651.451416,782.926331 651.994019,784.288696 
z"/>
<path fill="#F8F8F8" opacity="1.000000" stroke="none" 
	d="
M58.978729,279.614532 
	C57.510460,281.044525 56.154617,282.630920 54.587296,282.878479 
	C50.352539,283.547394 46.021591,283.581787 41.740612,283.991333 
	C37.934830,284.355438 35.640751,283.440643 35.939335,278.916412 
	C36.224026,274.602783 35.917519,270.253510 36.030499,265.924103 
	C36.122719,262.390167 37.290707,259.915558 41.605850,259.912170 
	C46.061264,259.908691 50.523575,259.404633 54.969215,258.977478 
	C59.036018,258.586761 60.342041,260.521790 60.020348,264.294922 
	C59.598454,269.243225 59.329460,274.204590 58.978729,279.614532 
z"/>
<path fill="#F8F8F8" opacity="1.000000" stroke="none" 
	d="
M834.191467,631.000000 
	C825.000549,630.705017 825.094910,630.703491 824.958984,622.438965 
	C824.893860,618.480225 824.462219,614.521729 824.068787,610.575867 
	C823.753357,607.411926 824.900024,605.749878 828.225342,606.017334 
	C834.156372,606.494263 840.085632,606.993835 847.337219,607.593201 
	C847.543762,614.321716 847.878357,621.351013 847.825073,628.377319 
	C847.818481,629.257202 845.829712,630.748474 844.645142,630.873413 
	C841.350159,631.220825 837.995056,630.997742 834.191467,631.000000 
z"/>
<path fill="#F8F8F8" opacity="1.000000" stroke="none" 
	d="
M136.000000,700.043640 
	C136.001282,698.229858 136.106491,696.887451 135.982758,695.566345 
	C135.703110,692.580383 137.207550,691.800232 139.885406,692.015442 
	C144.833954,692.413269 149.789169,692.811462 154.748962,692.954468 
	C157.636520,693.037781 159.076492,694.035767 159.020645,697.072205 
	C158.928757,702.068359 158.988861,707.067383 158.997452,712.065186 
	C159.003387,715.519226 157.579788,717.346619 153.844315,717.024719 
	C148.732178,716.584351 143.567383,716.568726 138.510345,715.806152 
	C137.245956,715.615601 135.464874,713.313171 135.382141,711.895996 
	C135.162308,708.130371 135.739700,704.318298 136.000000,700.043640 
z"/>
<path fill="#FFFFFF" opacity="1.000000" stroke="none" 
	d="
M359.925568,518.350098 
	C340.769196,518.288513 321.612823,518.190308 302.456421,518.174133 
	C274.632019,518.150696 246.807541,518.186462 218.143066,518.155334 
	C216.241577,518.099365 215.180115,518.085022 213.881195,518.024536 
	C213.643738,517.978516 213.162445,517.929565 213.162445,517.929565 
	C213.162445,517.929565 212.997208,517.980164 212.985092,517.546387 
	C213.023071,502.751282 213.073181,488.390045 213.500259,474.017181 
	C215.847916,472.396301 219.669052,470.391479 219.426208,469.255341 
	C218.811584,466.379852 217.354156,462.822357 213.055496,463.006805 
	C212.981293,462.247894 212.907089,461.488983 212.879333,459.901794 
	C212.946274,449.941467 213.003143,440.809357 212.980057,431.677429 
	C212.924683,409.766357 212.831741,387.855377 212.753952,365.944366 
	C212.753952,365.944366 212.953400,366.012787 213.245087,365.968689 
	C213.782135,365.786865 213.942154,365.582336 214.479126,365.239868 
	C263.622894,365.200531 312.304321,365.232300 361.084778,365.405273 
	C361.461090,365.451904 361.738403,365.357330 362.410522,365.210327 
	C363.865784,365.101990 364.926239,365.046143 366.032471,365.138519 
	C366.175659,365.329926 366.273102,365.373108 366.370544,365.416260 
	C366.243805,365.273224 366.117065,365.130188 366.104004,364.594482 
	C366.340790,363.122467 366.463928,362.043121 366.781250,360.794739 
	C366.854614,359.719116 366.733734,358.812469 366.518280,357.454010 
	C366.405640,312.856445 366.381989,268.710754 366.380035,224.565033 
	C366.379883,221.073074 366.530334,217.581100 366.872437,213.988846 
	C367.431335,213.236420 367.728577,212.584290 368.025848,211.932159 
	C370.346130,211.855179 372.666412,211.711060 374.986694,211.711105 
	C422.352203,211.712082 469.717743,211.729538 517.594238,212.014282 
	C518.403809,212.261765 518.702271,212.238693 519.000793,212.215637 
	C519.000793,212.215637 519.310852,212.169785 519.434387,212.623672 
	C519.569153,256.571716 519.589111,300.065857 519.582092,343.559998 
	C519.581055,350.054016 519.453552,356.548035 519.288940,363.149292 
	C519.097412,363.567841 519.186707,363.812469 519.760803,364.348083 
	C522.029541,364.857147 523.998657,365.139648 525.967896,365.140778 
	C569.341797,365.165833 612.715698,365.167145 656.089600,365.149811 
	C661.401733,365.147705 666.713867,365.013733 672.026001,364.940887 
	C672.026001,364.940887 671.979858,365.101990 672.044922,365.362640 
	C672.281616,365.850708 672.508667,365.982697 672.791138,366.019287 
	C672.875610,366.461700 672.960144,366.904144 672.703735,367.986084 
	C672.247375,370.440308 672.032593,372.254944 672.031189,374.069733 
	C671.994873,422.024109 671.980591,469.978485 671.962524,517.932861 
	C671.962524,517.932861 671.996643,517.947632 671.732666,517.911560 
	C671.304382,517.922424 671.140076,517.969299 670.975769,518.016235 
	C634.329773,518.068848 597.683777,518.121521 560.265381,518.061035 
	C559.285217,517.997864 559.077454,518.047791 558.869751,518.097717 
	C558.450684,518.123169 558.031616,518.148621 557.302856,517.699280 
	C556.498901,516.226196 556.004700,515.227905 555.510498,514.229675 
	C554.947876,515.371460 554.385254,516.513184 553.501282,517.699951 
	C552.762512,517.851807 552.345093,517.958618 551.927673,518.065491 
	C541.962646,518.094482 531.997681,518.123535 521.333557,518.069458 
	C520.273254,518.035034 520.039734,518.233704 519.933838,518.582336 
	C519.859375,528.081055 519.784973,537.579834 519.431885,547.777710 
	C519.302612,549.653198 519.451965,550.829529 519.601379,552.005798 
	C519.631409,553.063843 519.661377,554.121887 519.469360,555.668396 
	C519.208435,556.269226 519.105774,556.413574 519.143005,556.487671 
	C519.242554,556.685791 519.402039,556.853699 519.537781,557.033630 
	C519.579956,594.342163 519.622192,631.650696 519.156189,669.469910 
	C503.185822,670.020264 487.723602,670.100952 472.261444,670.091125 
	C437.012054,670.068787 401.762695,670.002075 366.458618,669.490356 
	C366.397552,661.360962 366.378815,653.694580 366.386780,646.028198 
	C366.429138,605.364685 366.478241,564.701111 366.651489,523.927246 
	C366.688690,523.529907 366.599426,523.242981 366.463257,522.634277 
	C366.448853,521.881348 366.481323,521.450256 366.677002,520.836548 
	C366.674103,520.088684 366.507996,519.523376 366.112366,518.706909 
	C365.234985,518.416565 364.587067,518.377319 363.939178,518.338013 
	C363.522156,518.293945 363.105164,518.249939 362.027405,518.166077 
	C360.886322,518.200867 360.405945,518.275452 359.925568,518.350098 
M448.837616,431.443268 
	C444.363373,431.296509 439.886230,431.207886 435.415894,430.983368 
	C432.219055,430.822815 430.764862,432.189789 430.996521,435.400177 
	C431.353485,440.347229 431.922150,445.297455 431.918884,450.246002 
	C431.916351,454.064331 433.537292,455.066528 437.058197,455.075531 
	C441.674774,455.087372 446.294464,455.582001 450.904510,455.967957 
	C455.132324,456.321869 456.362549,454.983398 455.979675,450.297760 
	C455.629852,446.016815 454.957733,441.719604 455.104279,437.452820 
	C455.247131,433.292450 453.619049,431.622467 448.837616,431.443268 
M647.464722,456.999603 
	C650.865295,457.467651 652.354309,456.168213 652.039856,452.580414 
	C651.548889,446.977020 651.417603,441.341583 650.893860,435.742157 
	C650.804565,434.787567 649.581909,433.239777 648.770569,433.163788 
	C642.840942,432.608246 636.884094,432.217255 630.931885,432.154724 
	C629.968323,432.144592 628.136353,434.032471 628.149353,435.024139 
	C628.229370,441.142273 628.595581,447.267883 629.210938,453.356201 
	C629.308167,454.318451 631.074097,455.722473 632.201294,455.864014 
	C636.953796,456.460907 641.756714,456.656952 647.464722,456.999603 
M454.001221,264.619904 
	C454.001221,262.541931 454.001221,260.463959 454.001221,257.350677 
	C447.239471,257.350677 441.310211,257.047699 435.450134,257.550568 
	C433.862366,257.686829 431.506317,260.077698 431.195496,261.748596 
	C430.325867,266.423523 430.399109,271.268036 429.988983,276.036072 
	C429.677582,279.656067 431.106323,281.090454 434.831787,281.075836 
	C439.940033,281.055786 445.056152,281.491486 450.157593,281.880188 
	C453.085236,282.103302 454.017517,280.659637 454.002411,278.049469 
	C453.978394,273.896179 453.999298,269.742615 454.001221,264.619904 
M268.779938,413.120392 
	C268.354858,414.067017 267.570526,415.012390 267.567169,415.960541 
	C267.552948,419.967957 263.781525,424.442688 259.753906,425.199432 
	C254.835892,426.123474 251.772629,429.756287 249.591324,433.701904 
	C249.004028,434.764221 251.398666,437.794067 252.905914,439.493866 
	C253.337677,439.980804 255.703766,439.320038 256.750458,438.576630 
	C258.961365,437.006348 260.793396,434.913269 262.946777,433.249359 
	C269.642090,428.075958 276.513733,423.123993 283.065491,417.777893 
	C284.228851,416.828552 285.122162,413.794830 284.478058,412.802582 
	C283.556091,411.382233 281.029663,410.126862 279.321014,410.280090 
	C275.983551,410.579407 272.737915,411.902985 268.779938,413.120392 
M238.576385,442.237457 
	C241.089951,443.411530 243.523972,444.856506 246.155411,445.629181 
	C247.240997,445.947937 249.072266,445.140045 249.955673,444.244263 
	C250.557159,443.634338 250.558350,441.705139 250.036636,440.846954 
	C248.255829,437.917786 239.447495,437.515472 237.309952,440.161804 
	C237.111526,440.407501 237.692291,441.282562 238.576385,442.237457 
M232.934296,458.752014 
	C231.579163,457.190094 230.442108,454.715942 228.807037,454.325073 
	C227.200531,453.941071 225.088272,455.672729 222.404007,456.813324 
	C226.578125,457.668701 229.414642,458.250000 232.934296,458.752014 
M219.368759,460.798859 
	C219.702637,461.786133 220.036499,462.773407 220.370377,463.760681 
	C220.947998,463.433899 221.525620,463.107147 222.103256,462.780365 
	C221.363251,461.963379 220.623245,461.146362 219.368759,460.798859 
M230.548416,452.281952 
	C231.202713,451.944702 231.857010,451.607422 232.511322,451.270172 
	C232.289383,450.926270 232.067444,450.582397 231.845505,450.238495 
	C231.294418,450.766815 230.743332,451.295135 230.548416,452.281952 
M227.481033,462.278229 
	C228.045624,462.387207 228.610199,462.496155 229.174789,462.605133 
	C229.180252,462.206116 229.185699,461.807129 229.191162,461.408142 
	C228.623856,461.502716 228.056549,461.597321 227.481033,462.278229 
z"/>
<path fill="#F5CDCA" opacity="1.000000" stroke="none" 
	d="
M366.513306,669.953308 
	C401.762695,670.002075 437.012054,670.068787 472.261444,670.091125 
	C487.723602,670.100952 503.185822,670.020264 519.080505,669.923157 
	C518.014160,670.541260 516.519775,671.792908 515.015747,671.804504 
	C497.205200,671.941284 479.393250,671.893127 461.581665,671.893250 
	C431.951172,671.893433 402.320709,671.900391 372.690216,671.877258 
	C370.709839,671.875732 368.729645,671.645874 366.510651,670.991943 
	C366.352417,670.292175 366.432861,670.122742 366.513306,669.953308 
z"/>
<path fill="#CD4B42" opacity="1.000000" stroke="none" 
	d="
M366.587036,360.963776 
	C366.463928,362.043121 366.340790,363.122467 366.108826,364.600891 
	C366.000000,365.000000 365.986725,364.990295 365.986725,364.990295 
	C364.926239,365.046143 363.865784,365.101990 362.152924,365.136383 
	C361.328949,365.164642 361.157379,365.214386 360.985779,365.264099 
	C312.304321,365.232300 263.622894,365.200531 214.244232,365.145874 
	C213.378494,365.117157 213.209991,365.111359 213.041504,365.105560 
	C214.908737,364.737610 216.775574,364.050690 218.643280,364.048340 
	C265.469025,363.988953 312.295197,363.926666 359.120300,364.112518 
	C364.033417,364.132019 365.145508,362.646088 365.128265,357.939453 
	C364.957855,311.447510 365.019257,264.954712 365.047394,218.462158 
	C365.048584,216.497070 365.367493,214.532181 365.915131,212.675125 
	C366.398193,213.218414 366.504486,213.653778 366.610779,214.089142 
	C366.530334,217.581100 366.379883,221.073074 366.380035,224.565033 
	C366.381989,268.710754 366.405640,312.856445 366.383484,357.825256 
	C366.424530,359.420135 366.505768,360.191956 366.587036,360.963776 
z"/>
<path fill="#D1564E" opacity="1.000000" stroke="none" 
	d="
M519.384521,363.042053 
	C519.453552,356.548035 519.581055,350.054016 519.582092,343.559998 
	C519.589111,300.065857 519.569153,256.571716 519.591064,212.621124 
	C520.064697,214.140991 520.886780,216.116730 520.889832,218.093750 
	C520.962097,264.756378 521.019897,311.419403 520.836670,358.081451 
	C520.817566,362.953400 522.226440,364.143921 526.977234,364.126038 
	C573.306030,363.951752 619.635742,364.017334 665.965149,364.036285 
	C667.781189,364.037018 669.597168,364.255493 671.719604,364.656708 
	C666.713867,365.013733 661.401733,365.147705 656.089600,365.149811 
	C612.715698,365.167145 569.341797,365.165833 525.967896,365.140778 
	C523.998657,365.139648 522.029541,364.857147 519.824219,364.104279 
	C519.520264,363.349213 519.452393,363.195618 519.384521,363.042053 
z"/>
<path fill="#F8DFDC" opacity="1.000000" stroke="none" 
	d="
M672.346436,517.898499 
	C671.980591,469.978485 671.994873,422.024109 672.031189,374.069733 
	C672.032593,372.254944 672.247375,370.440308 672.644531,368.321960 
	C673.060730,369.325592 673.312378,370.632782 673.312927,371.940063 
	C673.332947,419.139435 673.334961,466.338776 673.304382,513.538147 
	C673.303467,514.980286 672.930054,516.422119 672.346436,517.898499 
z"/>
<path fill="#D25046" opacity="1.000000" stroke="none" 
	d="
M366.458618,669.490356 
	C366.432861,670.122742 366.352417,670.292175 366.196686,670.732849 
	C365.759430,669.128174 365.083710,667.252808 365.081329,665.376465 
	C365.022400,618.900452 365.047699,572.424316 364.995544,525.948303 
	C364.992981,523.670227 364.424011,521.392883 364.028992,518.726562 
	C364.587067,518.377319 365.234985,518.416565 366.057129,519.054810 
	C366.325531,520.108887 366.419678,520.563965 366.513794,521.019104 
	C366.481323,521.450256 366.448853,521.881348 366.377869,522.905884 
	C366.401215,523.678711 366.463104,523.858154 366.525024,524.037598 
	C366.478241,564.701111 366.429138,605.364685 366.386780,646.028198 
	C366.378815,653.694580 366.397552,661.360962 366.458618,669.490356 
z"/>
<path fill="#CD4B42" opacity="1.000000" stroke="none" 
	d="
M212.501740,366.277130 
	C212.831741,387.855377 212.924683,409.766357 212.980057,431.677429 
	C213.003143,440.809357 212.946274,449.941467 212.802368,459.526947 
	C212.442062,458.877289 211.999664,457.774445 211.998260,456.671051 
	C211.960953,427.302979 211.967270,397.934845 211.981171,368.566742 
	C211.981476,367.914429 212.156189,367.262177 212.501740,366.277130 
z"/>
<path fill="#F8DFDC" opacity="1.000000" stroke="none" 
	d="
M212.930679,462.949585 
	C217.354156,462.822357 218.811584,466.379852 219.426208,469.255341 
	C219.669052,470.391479 215.847916,472.396301 213.393127,473.611450 
	C212.780777,472.111694 212.652573,471.006073 212.524353,469.900452 
	C212.572754,469.471710 212.621170,469.042999 212.744446,467.888062 
	C212.727997,465.767700 212.636703,464.373566 212.545425,462.979431 
	C212.545425,462.979431 212.805862,462.892334 212.930679,462.949585 
z"/>
<path fill="#CD4B42" opacity="1.000000" stroke="none" 
	d="
M212.213730,470.032104 
	C212.652573,471.006073 212.780777,472.111694 213.016144,473.623047 
	C213.073181,488.390045 213.023071,502.751282 212.905609,517.580200 
	C212.551575,517.297302 212.018295,516.548035 212.014648,515.796082 
	C211.941010,500.585510 211.928146,485.374603 212.213730,470.032104 
z"/>
<path fill="#F8DFDC" opacity="1.000000" stroke="none" 
	d="
M553.822632,517.654968 
	C554.385254,516.513184 554.947876,515.371460 555.510498,514.229675 
	C556.004700,515.227905 556.498901,516.226196 556.999756,517.607300 
	C556.594482,518.062683 556.182434,518.135132 555.125732,518.045044 
	C554.261536,517.806580 554.042053,517.730774 553.822632,517.654968 
z"/>
<path fill="#D25046" opacity="1.000000" stroke="none" 
	d="
M214.118652,518.070618 
	C215.180115,518.085022 216.241577,518.099365 217.684540,518.229980 
	C216.532684,518.705383 214.999329,519.064453 213.515533,519.125122 
	C213.903809,518.687744 214.088333,518.435669 214.118652,518.070618 
z"/>
<path fill="#CD4B42" opacity="1.000000" stroke="none" 
	d="
M212.367218,463.256897 
	C212.636703,464.373566 212.727997,465.767700 212.695190,467.566528 
	C212.443741,466.492279 212.316376,465.013336 212.367218,463.256897 
z"/>
<path fill="#D25046" opacity="1.000000" stroke="none" 
	d="
M359.983521,518.608887 
	C360.405945,518.275452 360.886322,518.200867 361.718933,518.236084 
	C361.394623,518.519836 360.718048,518.693726 359.983521,518.608887 
z"/>
<path fill="#F8DFDC" opacity="1.000000" stroke="none" 
	d="
M366.872437,213.988846 
	C366.504486,213.653778 366.398193,213.218414 366.262543,212.443542 
	C366.233215,212.104034 366.635498,211.884628 367.079224,211.753754 
	C367.683472,211.532745 367.843994,211.442627 368.004547,211.352509 
	C368.004547,211.352509 368.117798,211.638596 368.071838,211.785370 
	C367.728577,212.584290 367.431335,213.236420 366.872437,213.988846 
z"/>
<path fill="#F5CDCA" opacity="1.000000" stroke="none" 
	d="
M519.751953,551.623108 
	C519.451965,550.829529 519.302612,549.653198 519.357422,548.240356 
	C519.675232,549.082642 519.788879,550.161499 519.751953,551.623108 
z"/>
<path fill="#F5CDCA" opacity="1.000000" stroke="none" 
	d="
M553.501282,517.699951 
	C554.042053,517.730774 554.261536,517.806580 554.814575,517.983337 
	C554.229553,518.183655 553.311035,518.282959 552.160034,518.223877 
	C552.345093,517.958618 552.762512,517.851807 553.501282,517.699951 
z"/>
<path fill="#F8DFDC" opacity="1.000000" stroke="none" 
	d="
M213.881195,518.024536 
	C214.088333,518.435669 213.903809,518.687744 213.320923,518.838745 
	C213.076736,518.850769 213.011002,518.380127 213.086731,518.154846 
	C213.162445,517.929565 213.643738,517.978516 213.881195,518.024536 
z"/>
<path fill="#D1564E" opacity="1.000000" stroke="none" 
	d="
M367.870148,211.269226 
	C367.843994,211.442627 367.683472,211.532745 367.247742,211.598541 
	C367.129028,211.251175 367.383423,211.121735 367.870148,211.269226 
z"/>
<path fill="#F8DFDC" opacity="1.000000" stroke="none" 
	d="
M518.793335,212.008759 
	C518.702271,212.238693 518.403809,212.261765 518.057617,212.097687 
	C518.201965,211.874298 518.393921,211.838089 518.793335,212.008759 
z"/>
<path fill="#F5CDCA" opacity="1.000000" stroke="none" 
	d="
M519.646606,556.766968 
	C519.402039,556.853699 519.242554,556.685791 519.143005,556.487671 
	C519.105774,556.413574 519.208435,556.269226 519.396973,556.060059 
	C519.616272,556.142273 519.685852,556.321228 519.646606,556.766968 
z"/>
<path fill="#F5CDCA" opacity="1.000000" stroke="none" 
	d="
M671.077148,518.137085 
	C671.140076,517.969299 671.304382,517.922424 671.720093,517.925293 
	C671.971558,517.975098 671.643005,518.271606 671.643005,518.271606 
	C671.643005,518.271606 671.178589,518.257935 671.077148,518.137085 
z"/>
<path fill="#F5CDCA" opacity="1.000000" stroke="none" 
	d="
M558.995361,518.240479 
	C559.077454,518.047791 559.285217,517.997864 559.805725,518.018250 
	C559.786011,518.186768 559.453491,518.284973 558.995361,518.240479 
z"/>
<path fill="#F5CDCA" opacity="1.000000" stroke="none" 
	d="
M520.156860,518.574951 
	C520.039734,518.233704 520.273254,518.035034 520.873169,518.032227 
	C520.927490,518.330383 520.683533,518.493530 520.156860,518.574951 
z"/>
<path fill="#F8DFDC" opacity="1.000000" stroke="none" 
	d="
M213.009979,365.350403 
	C213.209991,365.111359 213.378494,365.117157 213.781906,365.217010 
	C213.942154,365.582336 213.782135,365.786865 213.348480,365.989410 
	C213.160187,366.054199 212.978470,365.595215 213.009979,365.350403 
z"/>
<path fill="#F8DFDC" opacity="1.000000" stroke="none" 
	d="
M672.826416,365.756531 
	C672.508667,365.982697 672.281616,365.850708 672.020508,365.442810 
	C672.241211,365.339478 672.551453,365.416626 672.826416,365.756531 
z"/>
<path fill="#F9F8F8" opacity="1.000000" stroke="none" 
	d="
M449.254517,431.601318 
	C453.619049,431.622467 455.247131,433.292450 455.104279,437.452820 
	C454.957733,441.719604 455.629852,446.016815 455.979675,450.297760 
	C456.362549,454.983398 455.132324,456.321869 450.904510,455.967957 
	C446.294464,455.582001 441.674774,455.087372 437.058197,455.075531 
	C433.537292,455.066528 431.916351,454.064331 431.918884,450.246002 
	C431.922150,445.297455 431.353485,440.347229 430.996521,435.400177 
	C430.764862,432.189789 432.219055,430.822815 435.415894,430.983368 
	C439.886230,431.207886 444.363373,431.296509 449.254517,431.601318 
z"/>
<path fill="#F8F8F8" opacity="1.000000" stroke="none" 
	d="
M647.002930,456.999634 
	C641.756714,456.656952 636.953796,456.460907 632.201294,455.864014 
	C631.074097,455.722473 629.308167,454.318451 629.210938,453.356201 
	C628.595581,447.267883 628.229370,441.142273 628.149353,435.024139 
	C628.136353,434.032471 629.968323,432.144592 630.931885,432.154724 
	C636.884094,432.217255 642.840942,432.608246 648.770569,433.163788 
	C649.581909,433.239777 650.804565,434.787567 650.893860,435.742157 
	C651.417603,441.341583 651.548889,446.977020 652.039856,452.580414 
	C652.354309,456.168213 650.865295,457.467651 647.002930,456.999634 
z"/>
<path fill="#F8F8F8" opacity="1.000000" stroke="none" 
	d="
M454.001221,265.104553 
	C453.999298,269.742615 453.978394,273.896179 454.002411,278.049469 
	C454.017517,280.659637 453.085236,282.103302 450.157593,281.880188 
	C445.056152,281.491486 439.940033,281.055786 434.831787,281.075836 
	C431.106323,281.090454 429.677582,279.656067 429.988983,276.036072 
	C430.399109,271.268036 430.325867,266.423523 431.195496,261.748596 
	C431.506317,260.077698 433.862366,257.686829 435.450134,257.550568 
	C441.310211,257.047699 447.239471,257.350677 454.001221,257.350677 
	C454.001221,260.463959 454.001221,262.541931 454.001221,265.104553 
z"/>
<path fill="#F8F8F8" opacity="1.000000" stroke="none" 
	d="
M269.117096,412.961456 
	C272.737915,411.902985 275.983551,410.579407 279.321014,410.280090 
	C281.029663,410.126862 283.556091,411.382233 284.478058,412.802582 
	C285.122162,413.794830 284.228851,416.828552 283.065491,417.777893 
	C276.513733,423.123993 269.642090,428.075958 262.946777,433.249359 
	C260.793396,434.913269 258.961365,437.006348 256.750458,438.576630 
	C255.703766,439.320038 253.337677,439.980804 252.905914,439.493866 
	C251.398666,437.794067 249.004028,434.764221 249.591324,433.701904 
	C251.772629,429.756287 254.835892,426.123474 259.753906,425.199432 
	C263.781525,424.442688 267.552948,419.967957 267.567169,415.960541 
	C267.570526,415.012390 268.354858,414.067017 269.117096,412.961456 
z"/>
<path fill="#F8F8F8" opacity="1.000000" stroke="none" 
	d="
M238.243820,442.051422 
	C237.692291,441.282562 237.111526,440.407501 237.309952,440.161804 
	C239.447495,437.515472 248.255829,437.917786 250.036636,440.846954 
	C250.558350,441.705139 250.557159,443.634338 249.955673,444.244263 
	C249.072266,445.140045 247.240997,445.947937 246.155411,445.629181 
	C243.523972,444.856506 241.089951,443.411530 238.243820,442.051422 
z"/>
<path fill="#F8DFDC" opacity="1.000000" stroke="none" 
	d="
M232.592712,458.791626 
	C229.414642,458.250000 226.578125,457.668701 222.404007,456.813324 
	C225.088272,455.672729 227.200531,453.941071 228.807037,454.325073 
	C230.442108,454.715942 231.579163,457.190094 232.592712,458.791626 
z"/>
<path fill="#F8DFDC" opacity="1.000000" stroke="none" 
	d="
M219.626007,460.564087 
	C220.623245,461.146362 221.363251,461.963379 222.103256,462.780365 
	C221.525620,463.107147 220.947998,463.433899 220.370377,463.760681 
	C220.036499,462.773407 219.702637,461.786133 219.626007,460.564087 
z"/>
<path fill="#F8DFDC" opacity="1.000000" stroke="none" 
	d="
M230.370331,452.052704 
	C230.743332,451.295135 231.294418,450.766815 231.845505,450.238495 
	C232.067444,450.582397 232.289383,450.926270 232.511322,451.270142 
	C231.857010,451.607422 231.202713,451.944702 230.370331,452.052704 
z"/>
<path fill="#F8DFDC" opacity="1.000000" stroke="none" 
	d="
M227.485138,461.985077 
	C228.056549,461.597321 228.623856,461.502716 229.191162,461.408142 
	C229.185699,461.807129 229.180252,462.206116 229.174789,462.605133 
	C228.610199,462.496155 228.045624,462.387207 227.485138,461.985077 
z"/>
<path fill="#F8DFDC" opacity="1.000000" stroke="none" 
	d="
M366.781250,360.794739 
	C366.505768,360.191956 366.424530,359.420135 366.478058,358.277100 
	C366.733734,358.812469 366.854614,359.719116 366.781250,360.794739 
z"/>
<path fill="#F5CDCA" opacity="1.000000" stroke="none" 
	d="
M366.677002,520.836548 
	C366.419678,520.563965 366.325531,520.108887 366.286621,519.305908 
	C366.507996,519.523376 366.674103,520.088684 366.677002,520.836548 
z"/>
<path fill="#F5CDCA" opacity="1.000000" stroke="none" 
	d="
M366.651489,523.927246 
	C366.463104,523.858154 366.401215,523.678711 366.424744,523.227661 
	C366.599426,523.242981 366.688690,523.529907 366.651489,523.927246 
z"/>
<path fill="#F8DFDC" opacity="1.000000" stroke="none" 
	d="
M361.084778,365.405273 
	C361.157379,365.214386 361.328949,365.164642 361.758118,365.188843 
	C361.738403,365.357330 361.461090,365.451904 361.084778,365.405273 
z"/>
<path fill="#F8DFDC" opacity="1.000000" stroke="none" 
	d="
M519.288940,363.149292 
	C519.452393,363.195618 519.520264,363.349213 519.524658,363.746643 
	C519.186707,363.812469 519.097412,363.567841 519.288940,363.149292 
z"/>
<path fill="#F8DFDC" opacity="1.000000" stroke="none" 
	d="
M365.995178,364.993591 
	C366.117065,365.130188 366.243805,365.273224 366.370544,365.416260 
	C366.273102,365.373108 366.175659,365.329926 366.032471,365.138519 
	C365.986725,364.990295 366.000000,365.000000 365.995178,364.993591 
z"/>
</svg>