<svg version="1.1" id="Layer_1" xmlns="http://www.w3.org/2000/svg" xmlns:xlink="http://www.w3.org/1999/xlink" x="0px" y="0px"
	 width="100%" viewBox="0 0 682 680" enable-background="new 0 0 682 680" xml:space="preserve">
<path fill="#FFFFFF" opacity="1.000000" stroke="none" 
	d="
M3.000000,1.000000 
	C229.620071,1.000000 456.240143,1.000000 682.930115,1.000000 
	C682.930115,227.573486 682.930115,454.147003 682.930115,681.000000 
	C456.639893,681.000000 230.279648,681.000000 3.469685,680.542114 
	C3.013307,453.722870 3.006654,227.361435 3.000000,1.000000 
M465.362122,123.102104 
	C394.408813,85.062607 321.083588,80.124474 246.708008,110.631569 
	C119.783943,162.692825 59.360512,307.752747 110.241745,435.295715 
	C160.456711,561.168579 302.569092,624.236145 429.920105,577.164856 
	C546.183716,534.191589 614.261353,412.087677 588.489197,291.328674 
	C572.710754,217.396729 531.231567,161.616592 465.362122,123.102104 
z"/>
<path fill="#0B0B0C" opacity="1.000000" stroke="none" 
	d="
M2.500000,1.000000 
	C3.006654,227.361435 3.013307,453.722870 3.009972,680.542175 
	C2.333317,680.666687 1.216312,680.451965 1.090966,679.976074 
	C0.803589,678.885071 1.000000,677.666687 1.000000,676.500000 
	C1.000000,452.833344 0.998038,229.166672 1.041302,5.500008 
	C1.041592,3.999943 1.666667,2.500000 2.500000,1.000000 
z"/>
<path fill="#DB3A34" opacity="1.000000" stroke="none" 
	d="
M465.677429,123.289764 
	C531.231567,161.616592 572.710754,217.396729 588.489197,291.328674 
	C614.261353,412.087677 546.183716,534.191589 429.920105,577.164856 
	C302.569092,624.236145 160.456711,561.168579 110.241745,435.295715 
	C59.360512,307.752747 119.783943,162.692825 246.708008,110.631569 
	C321.083588,80.124474 394.408813,85.062607 465.677429,123.289764 
M297.873230,415.500000 
	C297.873230,446.565857 297.873230,477.631714 297.873230,508.701294 
	C328.356781,508.701294 357.959229,508.701294 388.282959,508.701294 
	C388.282959,468.086090 388.282959,427.734863 388.282959,386.843689 
	C429.232758,386.843689 469.462006,386.843689 509.538055,386.843689 
	C509.538055,356.569733 509.538055,326.847748 509.538055,296.559387 
	C468.878326,296.559387 428.647675,296.559387 387.858459,296.559387 
	C387.858459,255.763214 387.858459,215.536194 387.858459,175.444504 
	C357.568512,175.444504 327.847351,175.444504 297.873779,175.444504 
	C297.873779,177.690125 297.873779,179.515076 297.873779,181.340042 
	C297.873596,218.003983 297.801514,254.668274 297.969452,291.331451 
	C297.989227,295.641296 297.007721,297.002258 292.477966,296.979034 
	C255.648331,296.790039 218.817307,296.875244 181.986694,296.876953 
	C180.081985,296.877045 178.177292,296.876953 176.294861,296.876953 
	C176.294861,327.352325 176.294861,356.955292 176.294861,387.296295 
	C216.905502,387.296295 257.255493,387.296295 297.873199,387.296295 
	C297.873199,396.855469 297.873199,405.677734 297.873230,415.500000 
z"/>
<path fill="#FFFEFE" opacity="1.000000" stroke="none" 
	d="
M297.873230,415.000000 
	C297.873199,405.677734 297.873199,396.855469 297.873199,387.296295 
	C257.255493,387.296295 216.905502,387.296295 176.294861,387.296295 
	C176.294861,356.955292 176.294861,327.352325 176.294861,296.876953 
	C178.177292,296.876953 180.081985,296.877045 181.986694,296.876953 
	C218.817307,296.875244 255.648331,296.790039 292.477966,296.979034 
	C297.007721,297.002258 297.989227,295.641296 297.969452,291.331451 
	C297.801514,254.668274 297.873596,218.003983 297.873779,181.340042 
	C297.873779,179.515076 297.873779,177.690125 297.873779,175.444504 
	C327.847351,175.444504 357.568512,175.444504 387.858459,175.444504 
	C387.858459,215.536194 387.858459,255.763214 387.858459,296.559387 
	C428.647675,296.559387 468.878326,296.559387 509.538055,296.559387 
	C509.538055,326.847748 509.538055,356.569733 509.538055,386.843689 
	C469.462006,386.843689 429.232758,386.843689 388.282959,386.843689 
	C388.282959,427.734863 388.282959,468.086090 388.282959,508.701294 
	C357.959229,508.701294 328.356781,508.701294 297.873230,508.701294 
	C297.873230,477.631714 297.873230,446.565857 297.873230,415.000000 
z"/>
</svg>